<?xml version="1.0" encoding="UTF-8"?>
<svg xmlns="http://www.w3.org/2000/svg" xmlns:xlink="http://www.w3.org/1999/xlink" width="64px" height="64px" viewBox="0 0 64 64" version="1.1">
<defs>
<linearGradient id="linear0" gradientUnits="userSpaceOnUse" x1="0.2" y1="0" x2="1" y2="1" gradientTransform="matrix(48.75,0,0,56.105469,7.5,4.769531)">
<stop offset="0" style="stop-color:rgb(18.431373%,33.333333%,100%);stop-opacity:1;"/>
<stop offset="0.65" style="stop-color:rgb(29.019608%,41.960784%,100%);stop-opacity:1;"/>
<stop offset="1" style="stop-color:rgb(17.254902%,80.784314%,92.156863%);stop-opacity:1;"/>
</linearGradient>
<filter id="alpha" filterUnits="objectBoundingBox" x="0%" y="0%" width="100%" height="100%">
  <feColorMatrix type="matrix" in="SourceGraphic" values="0 0 0 0 1 0 0 0 0 1 0 0 0 0 1 0 0 0 1 0"/>
</filter>
<mask id="mask0">
  <g filter="url(#alpha)">
<rect x="0" y="0" width="64" height="64" style="fill:rgb(0%,0%,0%);fill-opacity:0.898039;stroke:none;"/>
  </g>
</mask>
<linearGradient id="linear1" gradientUnits="userSpaceOnUse" x1="0" y1="0" x2="1" y2="1" gradientTransform="matrix(20.625,0,0,34,35.625,5)">
<stop offset="0" style="stop-color:rgb(20.784314%,33.333333%,100%);stop-opacity:1;"/>
<stop offset="0.55" style="stop-color:rgb(35.686275%,30.196078%,100%);stop-opacity:1;"/>
<stop offset="1" style="stop-color:rgb(12.156863%,83.137255%,90.980392%);stop-opacity:1;"/>
</linearGradient>
<clipPath id="clip1">
  <rect x="0" y="0" width="64" height="64"/>
</clipPath>
<g id="surface5" clip-path="url(#clip1)">
<path style=" stroke:none;fill-rule:nonzero;fill:url(#linear1);" d="M 39.375 5 C 49 5 56.25 12.375 56.25 22 C 56.25 31.75 49 39 39.375 39 L 35.625 39 C 45.625 39 52.5 31.625 52.5 22 C 52.5 14.375 47.25 7.875 39.375 5 Z M 39.375 5 "/>
</g>
<mask id="mask1">
  <g filter="url(#alpha)">
<rect x="0" y="0" width="64" height="64" style="fill:rgb(0%,0%,0%);fill-opacity:0.0784314;stroke:none;"/>
  </g>
</mask>
<clipPath id="clip2">
  <rect x="0" y="0" width="64" height="64"/>
</clipPath>
<g id="surface8" clip-path="url(#clip2)">
<path style=" stroke:none;fill-rule:nonzero;fill:rgb(100%,100%,100%);fill-opacity:1;" d="M 21.875 6.875 L 39.375 6.875 C 47.875 6.875 54.375 13.375 54.375 22 C 54.375 23.5 54.125 24.875 53.75 26.25 C 53.125 17.875 46.625 11.625 38.125 11.625 L 21.875 11.625 C 19 11.625 10.839844 9.460938 10.214844 6.960938 C 11.839844 6.835938 19.625 6.875 21.875 6.875 Z M 21.875 6.875 "/>
</g>
</defs>
<g id="surface1">
<path style=" stroke:none;fill-rule:nonzero;fill:url(#linear0);" d="M 8.34375 11.585938 C 8.171875 8.242188 10.3125 4.769531 14.0625 4.769531 L 39.375 5 C 49 5 56.25 12.375 56.25 22 C 56.25 31.75 49 39 39.375 39 L 30.625 39 C 25.5 39 21.25 43.25 21.25 48.375 L 21.25 54 C 21.25 57.75 18.125 60.875 14.375 60.875 C 10.625 60.875 7.5 57.75 7.5 54 L 7.5 47.125 C 7.5 34.5 16.832031 24.53125 29.582031 24.53125 L 39.375 24.585938 C 41.5 24.585938 42.605469 23.425781 42.605469 21.300781 C 42.605469 19.175781 40.632812 18.304688 38.507812 18.304688 L 14.46875 18.011719 C 10.71875 18.011719 8.519531 14.929688 8.34375 11.585938 Z M 8.34375 11.585938 "/>
<use xlink:href="#surface5" mask="url(#mask0)"/>
<use xlink:href="#surface8" mask="url(#mask1)"/>
</g>
</svg>
